<svg width="842" height="601" viewBox="0 0 842 601" fill="none" xmlns="http://www.w3.org/2000/svg">
<path d="M662.349 332.899L496.355 252.634L420.855 213.594L3.85474 4.73022L30.0772 102.594L348.314 256.094L420.855 291.383L692.355 424.594L662.349 332.899Z" fill="white"/>
<path d="M420.855 213.594L837.355 4.73022L811.132 102.594L496.355 252.634M420.855 213.594L3.85474 4.73022L30.0772 102.594L348.314 256.094M420.855 213.594L496.355 252.634M496.355 252.634L662.349 332.899L692.355 424.594L420.855 291.383M420.855 291.383L148.855 424.594L178.86 332.899L348.314 256.094M420.855 291.383L348.314 256.094" stroke="white" stroke-width="5"/>
<path d="M420.855 384.23L837.355 175.367L811.132 273.23L493.431 424.73L662.349 503.535L692.355 595.23L420.855 461.864L148.855 595.23L178.86 503.535L348.314 426.73L30.0772 273.23L3.85474 175.367L420.855 384.23Z" fill="white" stroke="white" stroke-width="5"/>
</svg>
